<svg xmlns="http://www.w3.org/2000/svg" xmlns:xlink="http://www.w3.org/1999/xlink" version="1.1" x="0px" y="0px" viewBox="0 0 100 100" enable-background="new 0 0 100 100" xml:space="preserve"><path d="M85.826,43.613c-2.108-0.414-5.031-1.592-5.031-2.728c0-2.585-3.996-6.42-9.518-6.42c-6.144,0-9.837,3.547-12.001,7.078  c-0.595-4.138-2.229-6.193-3.822-8.188c-2.495-3.122-4.851-6.071-3.235-17.861l0.262-1.917l-1.694,0.934  c-4.831,2.663-10.843,11.419-10.633,20.29c-0.364-0.179-0.727-0.356-1.09-0.534c-7.304-3.57-14.204-6.942-19.356-16.094  l-1.475-2.618l-0.338,2.986c-0.937,8.266-0.191,17.132,2.047,24.327c2.357,7.574,6.306,13.215,11.532,16.54  c-5.581,0.617-14.349,3.183-20.481,8.736l-0.246,0.223l-0.059,0.326c-0.764,4.282,3.013,15.087,7.37,16.83l0.606,0.242l0.454-0.47  c2.146-2.224,8.381-7.998,11.871-8.52c6.059,1.933,11.516,2.912,16.222,2.912c15.804,0,20.295-11.002,21.567-17.566  C70.912,50.698,85.8,45.538,85.951,45.487l3.461-1.171L85.826,43.613z M42.152,35.795c-0.632-7.327,3.771-14.97,7.877-18.4  c-1.139,10.859,1.423,14.066,3.906,17.173c1.849,2.315,3.597,4.502,3.632,10.344c-0.246,0.631-0.443,1.213-0.598,1.718  c-0.025-0.029-0.051-0.055-0.076-0.083c-0.292-0.326-0.586-0.645-0.881-0.954c-0.197-0.208-0.396-0.406-0.596-0.606  c-0.123-0.124-0.245-0.249-0.368-0.37c-0.229-0.224-0.458-0.441-0.688-0.656c-0.091-0.084-0.181-0.169-0.271-0.252  c-0.249-0.229-0.5-0.454-0.751-0.673c-0.062-0.054-0.123-0.106-0.185-0.159c-0.273-0.236-0.548-0.469-0.823-0.694  c-0.013-0.01-0.024-0.02-0.037-0.03c-0.895-0.729-1.797-1.404-2.705-2.031c-0.038-0.026-0.076-0.054-0.114-0.08  c-0.221-0.151-0.441-0.298-0.662-0.444c-0.14-0.093-0.279-0.185-0.418-0.275c-0.176-0.115-0.353-0.227-0.53-0.338  c-0.199-0.125-0.397-0.249-0.596-0.37c-0.133-0.081-0.265-0.163-0.398-0.242c-0.292-0.174-0.582-0.345-0.871-0.511  c-0.048-0.028-0.097-0.057-0.145-0.084c-0.372-0.212-0.741-0.419-1.108-0.62c-0.003-0.001-0.005-0.002-0.008-0.004  c-0.347-0.189-0.69-0.373-1.033-0.554c-0.1-0.052-0.199-0.104-0.298-0.156c-0.244-0.127-0.486-0.252-0.727-0.376  c-0.132-0.068-0.265-0.136-0.397-0.203C42.24,35.84,42.196,35.817,42.152,35.795z M66.868,61.758  c-1.413,7.293-5.971,15.985-19.658,15.985c-4.557,0-9.883-0.97-15.831-2.884l-0.191-0.062l-0.2,0.02  c-4.257,0.411-10.77,6.617-12.754,8.604c-2.918-1.993-6.072-10.369-5.678-14.068c6.996-6.154,17.406-8.153,21.404-8.153  c0.497,0,0.931,0.029,1.255,0.082l8.785,1.456l-8.264-3.316c-12.671-5.086-17.159-22.571-16.17-37.763  c5.224,7.797,11.76,10.992,18.643,14.355c0.725,0.354,1.452,0.71,2.181,1.073l0.414,0.208c0.401,0.201,0.81,0.409,1.22,0.621  c0.281,0.145,0.562,0.29,0.843,0.439c0.065,0.035,0.131,0.07,0.197,0.105c0.327,0.175,0.655,0.352,0.982,0.533  c0.05,0.028,0.101,0.056,0.151,0.084c0.341,0.189,0.682,0.383,1.022,0.581c0.044,0.025,0.088,0.051,0.132,0.077  c0.348,0.204,0.695,0.413,1.042,0.626c0.038,0.023,0.076,0.046,0.115,0.07c0.379,0.235,0.758,0.477,1.136,0.725  c0.003,0.002,0.007,0.005,0.011,0.007c0.367,0.242,0.733,0.492,1.098,0.749c0.158,0.111,0.317,0.229,0.475,0.344  c0.195,0.141,0.39,0.281,0.584,0.427c0.205,0.154,0.41,0.315,0.615,0.476c0.147,0.114,0.293,0.229,0.439,0.346  c0.218,0.175,0.435,0.355,0.652,0.538c0.137,0.115,0.273,0.231,0.41,0.349c0.216,0.187,0.431,0.377,0.646,0.572  c0.142,0.128,0.283,0.259,0.424,0.391c0.206,0.191,0.411,0.385,0.615,0.584c0.16,0.156,0.319,0.317,0.479,0.478  c0.184,0.186,0.368,0.37,0.551,0.562c0.2,0.21,0.398,0.429,0.596,0.647c0.144,0.157,0.287,0.31,0.429,0.471  c0.343,0.39,0.684,0.79,1.021,1.207l1.336,1.644v0l0.003,0.003l0.347-1.941l0.026-0.147c0.003-0.015,0.273-1.491,1.04-3.403  l0.07-0.174v-0.054c1.511-3.68,4.857-8.82,11.765-8.82c4.556,0,7.574,3.185,7.574,4.477c0,1.917,1.999,3.128,3.828,3.836  C78.001,46.851,68.649,52.227,66.868,61.758z"/></svg>
