<?xml version="1.0" encoding="UTF-8" standalone="no"?>
<!-- Created with Inkscape (http://www.inkscape.org/) -->

<svg
   version="1.1"
   id="svg2"
   xml:space="preserve"
   width="318.35846"
   height="178.39917"
   viewBox="0 0 318.35846 178.39917"
   xmlns="http://www.w3.org/2000/svg"
   xmlns:svg="http://www.w3.org/2000/svg"><defs
     id="defs6"><clipPath
       clipPathUnits="userSpaceOnUse"
       id="clipPath60"><path
         d="M 30.630756,136.52565 H 237.69467 v 96.26809 H 30.630756 Z"
         id="path58" /></clipPath><clipPath
       clipPathUnits="userSpaceOnUse"
       id="clipPath70"><path
         d="M 30.630756,136.52565 H 237.69467 v 96.26809 H 30.630756 Z"
         id="path68" /></clipPath><clipPath
       clipPathUnits="userSpaceOnUse"
       id="clipPath80"><path
         d="M 30.630756,136.52565 H 237.69467 v 96.26809 H 30.630756 Z"
         id="path78" /></clipPath><clipPath
       clipPathUnits="userSpaceOnUse"
       id="clipPath92"><path
         d="M -7.4,-7.4 H 7.4 V 7.4 H -7.4 Z"
         id="path90" /></clipPath><clipPath
       clipPathUnits="userSpaceOnUse"
       id="clipPath104"><path
         d="M -7.4,-7.4 H 7.4 V 7.4 H -7.4 Z"
         id="path102" /></clipPath><clipPath
       clipPathUnits="userSpaceOnUse"
       id="clipPath116"><path
         d="M -7.4,-7.4 H 7.4 V 7.4 H -7.4 Z"
         id="path114" /></clipPath><clipPath
       clipPathUnits="userSpaceOnUse"
       id="clipPath128"><path
         d="M -7.4,-7.4 H 7.4 V 7.4 H -7.4 Z"
         id="path126" /></clipPath><clipPath
       clipPathUnits="userSpaceOnUse"
       id="clipPath140"><path
         d="M -7.4,-7.4 H 7.4 V 7.4 H -7.4 Z"
         id="path138" /></clipPath><clipPath
       clipPathUnits="userSpaceOnUse"
       id="clipPath152"><path
         d="M -7.4,-7.4 H 7.4 V 7.4 H -7.4 Z"
         id="path150" /></clipPath><clipPath
       clipPathUnits="userSpaceOnUse"
       id="clipPath164"><path
         d="M -7.4,-7.4 H 7.4 V 7.4 H -7.4 Z"
         id="path162" /></clipPath><clipPath
       clipPathUnits="userSpaceOnUse"
       id="clipPath176"><path
         d="M -7.4,-7.4 H 7.4 V 7.4 H -7.4 Z"
         id="path174" /></clipPath><clipPath
       clipPathUnits="userSpaceOnUse"
       id="clipPath188"><path
         d="M -7.4,-7.4 H 7.4 V 7.4 H -7.4 Z"
         id="path186" /></clipPath><clipPath
       clipPathUnits="userSpaceOnUse"
       id="clipPath200"><path
         d="M -7.4,-7.4 H 7.4 V 7.4 H -7.4 Z"
         id="path198" /></clipPath><clipPath
       clipPathUnits="userSpaceOnUse"
       id="clipPath210"><path
         d="M 30.630756,136.52565 H 237.69467 v 96.26809 H 30.630756 Z"
         id="path208" /></clipPath><clipPath
       clipPathUnits="userSpaceOnUse"
       id="clipPath222"><path
         d="M -7.4,-7.4 H 7.4 V 7.4 H -7.4 Z"
         id="path220" /></clipPath><clipPath
       clipPathUnits="userSpaceOnUse"
       id="clipPath234"><path
         d="M -7.4,-7.4 H 7.4 V 7.4 H -7.4 Z"
         id="path232" /></clipPath><clipPath
       clipPathUnits="userSpaceOnUse"
       id="clipPath246"><path
         d="M -7.4,-7.4 H 7.4 V 7.4 H -7.4 Z"
         id="path244" /></clipPath><clipPath
       clipPathUnits="userSpaceOnUse"
       id="clipPath258"><path
         d="M -7.4,-7.4 H 7.4 V 7.4 H -7.4 Z"
         id="path256" /></clipPath><clipPath
       clipPathUnits="userSpaceOnUse"
       id="clipPath270"><path
         d="M -7.4,-7.4 H 7.4 V 7.4 H -7.4 Z"
         id="path268" /></clipPath><clipPath
       clipPathUnits="userSpaceOnUse"
       id="clipPath282"><path
         d="M -7.4,-7.4 H 7.4 V 7.4 H -7.4 Z"
         id="path280" /></clipPath><clipPath
       clipPathUnits="userSpaceOnUse"
       id="clipPath294"><path
         d="M -7.4,-7.4 H 7.4 V 7.4 H -7.4 Z"
         id="path292" /></clipPath><clipPath
       clipPathUnits="userSpaceOnUse"
       id="clipPath306"><path
         d="M -7.4,-7.4 H 7.4 V 7.4 H -7.4 Z"
         id="path304" /></clipPath><clipPath
       clipPathUnits="userSpaceOnUse"
       id="clipPath318"><path
         d="M -7.4,-7.4 H 7.4 V 7.4 H -7.4 Z"
         id="path316" /></clipPath><clipPath
       clipPathUnits="userSpaceOnUse"
       id="clipPath330"><path
         d="M -7.4,-7.4 H 7.4 V 7.4 H -7.4 Z"
         id="path328" /></clipPath><clipPath
       clipPathUnits="userSpaceOnUse"
       id="clipPath450"><path
         d="M 30.630756,30.630756 H 237.69467 V 126.89885 H 30.630756 Z"
         id="path448" /></clipPath><clipPath
       clipPathUnits="userSpaceOnUse"
       id="clipPath460"><path
         d="M 30.630756,30.630756 H 237.69467 V 126.89885 H 30.630756 Z"
         id="path458" /></clipPath><clipPath
       clipPathUnits="userSpaceOnUse"
       id="clipPath470"><path
         d="M 30.630756,30.630756 H 237.69467 V 126.89885 H 30.630756 Z"
         id="path468" /></clipPath><clipPath
       clipPathUnits="userSpaceOnUse"
       id="clipPath482"><path
         d="M -7.4,-7.4 H 7.4 V 7.4 H -7.4 Z"
         id="path480" /></clipPath><clipPath
       clipPathUnits="userSpaceOnUse"
       id="clipPath494"><path
         d="M -7.4,-7.4 H 7.4 V 7.4 H -7.4 Z"
         id="path492" /></clipPath><clipPath
       clipPathUnits="userSpaceOnUse"
       id="clipPath506"><path
         d="M -7.4,-7.4 H 7.4 V 7.4 H -7.4 Z"
         id="path504" /></clipPath><clipPath
       clipPathUnits="userSpaceOnUse"
       id="clipPath518"><path
         d="M -7.4,-7.4 H 7.4 V 7.4 H -7.4 Z"
         id="path516" /></clipPath><clipPath
       clipPathUnits="userSpaceOnUse"
       id="clipPath530"><path
         d="M -7.4,-7.4 H 7.4 V 7.4 H -7.4 Z"
         id="path528" /></clipPath><clipPath
       clipPathUnits="userSpaceOnUse"
       id="clipPath542"><path
         d="M -7.4,-7.4 H 7.4 V 7.4 H -7.4 Z"
         id="path540" /></clipPath><clipPath
       clipPathUnits="userSpaceOnUse"
       id="clipPath554"><path
         d="M -7.4,-7.4 H 7.4 V 7.4 H -7.4 Z"
         id="path552" /></clipPath><clipPath
       clipPathUnits="userSpaceOnUse"
       id="clipPath566"><path
         d="M -7.4,-7.4 H 7.4 V 7.4 H -7.4 Z"
         id="path564" /></clipPath><clipPath
       clipPathUnits="userSpaceOnUse"
       id="clipPath578"><path
         d="M -7.4,-7.4 H 7.4 V 7.4 H -7.4 Z"
         id="path576" /></clipPath><clipPath
       clipPathUnits="userSpaceOnUse"
       id="clipPath590"><path
         d="M -7.4,-7.4 H 7.4 V 7.4 H -7.4 Z"
         id="path588" /></clipPath><clipPath
       clipPathUnits="userSpaceOnUse"
       id="clipPath600"><path
         d="M 30.630756,30.630756 H 237.69467 V 126.89885 H 30.630756 Z"
         id="path598" /></clipPath><clipPath
       clipPathUnits="userSpaceOnUse"
       id="clipPath612"><path
         d="M -7.4,-7.4 H 7.4 V 7.4 H -7.4 Z"
         id="path610" /></clipPath><clipPath
       clipPathUnits="userSpaceOnUse"
       id="clipPath624"><path
         d="M -7.4,-7.4 H 7.4 V 7.4 H -7.4 Z"
         id="path622" /></clipPath><clipPath
       clipPathUnits="userSpaceOnUse"
       id="clipPath636"><path
         d="M -7.4,-7.4 H 7.4 V 7.4 H -7.4 Z"
         id="path634" /></clipPath><clipPath
       clipPathUnits="userSpaceOnUse"
       id="clipPath648"><path
         d="M -7.4,-7.4 H 7.4 V 7.4 H -7.4 Z"
         id="path646" /></clipPath><clipPath
       clipPathUnits="userSpaceOnUse"
       id="clipPath660"><path
         d="M -7.4,-7.4 H 7.4 V 7.4 H -7.4 Z"
         id="path658" /></clipPath><clipPath
       clipPathUnits="userSpaceOnUse"
       id="clipPath672"><path
         d="M -7.4,-7.4 H 7.4 V 7.4 H -7.4 Z"
         id="path670" /></clipPath><clipPath
       clipPathUnits="userSpaceOnUse"
       id="clipPath684"><path
         d="M -7.4,-7.4 H 7.4 V 7.4 H -7.4 Z"
         id="path682" /></clipPath><clipPath
       clipPathUnits="userSpaceOnUse"
       id="clipPath696"><path
         d="M -7.4,-7.4 H 7.4 V 7.4 H -7.4 Z"
         id="path694" /></clipPath><clipPath
       clipPathUnits="userSpaceOnUse"
       id="clipPath708"><path
         d="M -7.4,-7.4 H 7.4 V 7.4 H -7.4 Z"
         id="path706" /></clipPath><clipPath
       clipPathUnits="userSpaceOnUse"
       id="clipPath720"><path
         d="M -7.4,-7.4 H 7.4 V 7.4 H -7.4 Z"
         id="path718" /></clipPath></defs><g
     id="g8"
     transform="matrix(1.3333333,0,0,-1.3333333,-3.9449707,184.23671)"><path
       d="M 0,0 H 245.04605 V 245.04605 H 0 Z"
       style="fill:#ffffff;fill-opacity:1;fill-rule:nonzero;stroke:none"
       id="path10" /><path
       d="m 118.70602,131.68109 h 17.59999 v 6.16 h -17.59999 z"
       style="fill:#294079;fill-opacity:0.5;fill-rule:nonzero;stroke:none"
       id="path344" /><path
       d="m 127.50602,133.66109 c 0.29172,0 0.57153,0.1159 0.77781,0.32218 0.20628,0.20628 0.32218,0.48609 0.32218,0.77782 0,0.29172 -0.1159,0.57153 -0.32218,0.77781 -0.20628,0.20628 -0.48609,0.32219 -0.77781,0.32219 -0.29173,0 -0.57154,-0.11591 -0.77782,-0.32219 -0.20628,-0.20628 -0.32218,-0.48609 -0.32218,-0.77781 0,-0.29173 0.1159,-0.57154 0.32218,-0.77782 0.20628,-0.20628 0.48609,-0.32218 0.77782,-0.32218 z"
       style="fill:#294079;fill-opacity:1;fill-rule:nonzero;stroke:#294079;stroke-width:1;stroke-linecap:butt;stroke-linejoin:round;stroke-miterlimit:10;stroke-dasharray:none;stroke-opacity:1"
       id="path346" /><path
       d="m 118.70602,134.76109 h 17.59999"
       style="fill:none;stroke:#294079;stroke-width:0.6;stroke-linecap:butt;stroke-linejoin:round;stroke-miterlimit:10;stroke-dasharray:2.22, 0.96;stroke-dashoffset:0;stroke-opacity:1"
       id="path348" /><text
       transform="scale(1,-1)"
       style="font-variant:normal;font-size:8.76713px;font-family:'Nimbus Sans L';-inkscape-font-specification:NimbusSanL-Regu;writing-mode:lr-tb;fill:#262626;fill-opacity:1;fill-rule:nonzero;stroke:none"
       id="text352"
       x="143.34601"
       y="-131.68109"><tspan
         x="143.34601 149.53569 154.40144 156.82994 161.69569"
         y="-131.68109"
         id="tspan350">water</tspan></text><path
       d="m 182.24994,131.68109 h 17.6 v 6.16 h -17.6 z"
       style="fill:#8ec291;fill-opacity:0.5;fill-rule:nonzero;stroke:none"
       id="path354" /><path
       d="m 191.04994,133.66109 c 0.29173,0 0.57154,0.1159 0.77782,0.32218 0.20628,0.20628 0.32218,0.48609 0.32218,0.77782 0,0.29172 -0.1159,0.57153 -0.32218,0.77781 -0.20628,0.20628 -0.48609,0.32219 -0.77782,0.32219 -0.29172,0 -0.57153,-0.11591 -0.77781,-0.32219 -0.20628,-0.20628 -0.32219,-0.48609 -0.32219,-0.77781 0,-0.29173 0.11591,-0.57154 0.32219,-0.77782 0.20628,-0.20628 0.48609,-0.32218 0.77781,-0.32218 z"
       style="fill:#8ec291;fill-opacity:1;fill-rule:nonzero;stroke:#8ec291;stroke-width:1;stroke-linecap:butt;stroke-linejoin:round;stroke-miterlimit:10;stroke-dasharray:none;stroke-opacity:1"
       id="path356" /><path
       d="m 182.24994,134.76109 h 17.6"
       style="fill:none;stroke:#8ec291;stroke-width:0.6;stroke-linecap:butt;stroke-linejoin:round;stroke-miterlimit:10;stroke-dasharray:2.22, 0.96;stroke-dashoffset:0;stroke-opacity:1"
       id="path358" /><text
       transform="scale(1,-1)"
       style="font-variant:normal;font-size:8.76713px;font-family:'Nimbus Sans L';-inkscape-font-specification:NimbusSanL-Regu;writing-mode:lr-tb;fill:#262626;fill-opacity:1;fill-rule:nonzero;stroke:none"
       id="text362"
       x="206.88994"
       y="-131.68109"><tspan
         x="206.88994 213.21104 217.5946 223.4335 228.29926"
         y="-131.68109"
         id="tspan360">CsSnI</tspan></text><text
       transform="scale(1,-1)"
       style="font-variant:normal;font-size:6.13696px;font-family:'Nimbus Sans L';-inkscape-font-specification:NimbusSanL-Regu;writing-mode:lr-tb;fill:#262626;fill-opacity:1;fill-rule:nonzero;stroke:none"
       id="text366"
       x="230.76256"
       y="-130.37743"><tspan
         x="230.76256"
         y="-130.37743"
         id="tspan364">3</tspan></text><path
       d="M 30.630756,30.630756 H 237.69467 V 126.89885 H 30.630756 Z"
       style="fill:#ffffff;fill-opacity:1;fill-rule:nonzero;stroke:none"
       id="path368" /><path
       d="m 53.637857,30.630756 v -4.8"
       style="fill:#262626;fill-opacity:1;fill-rule:nonzero;stroke:#262626;stroke-width:1;stroke-linecap:butt;stroke-linejoin:round;stroke-miterlimit:10;stroke-dasharray:none;stroke-opacity:1"
       id="path370" /><text
       transform="scale(1,-1)"
       style="font-variant:normal;font-size:7.97011px;font-family:'Nimbus Sans L';-inkscape-font-specification:NimbusSanL-Regu;writing-mode:lr-tb;fill:#262626;fill-opacity:1;fill-rule:nonzero;stroke:none"
       id="text374"
       x="51.422192"
       y="-19.1521"><tspan
         x="51.422192"
         y="-19.1521"
         id="tspan372">2</tspan></text><path
       d="m 99.652059,30.630756 v -4.8"
       style="fill:#262626;fill-opacity:1;fill-rule:nonzero;stroke:#262626;stroke-width:1;stroke-linecap:butt;stroke-linejoin:round;stroke-miterlimit:10;stroke-dasharray:none;stroke-opacity:1"
       id="path376" /><text
       transform="scale(1,-1)"
       style="font-variant:normal;font-size:7.97011px;font-family:'Nimbus Sans L';-inkscape-font-specification:NimbusSanL-Regu;writing-mode:lr-tb;fill:#262626;fill-opacity:1;fill-rule:nonzero;stroke:none"
       id="text380"
       x="97.436394"
       y="-19.1521"><tspan
         x="97.436394"
         y="-19.1521"
         id="tspan378">4</tspan></text><path
       d="m 145.66626,30.630756 v -4.8"
       style="fill:#262626;fill-opacity:1;fill-rule:nonzero;stroke:#262626;stroke-width:1;stroke-linecap:butt;stroke-linejoin:round;stroke-miterlimit:10;stroke-dasharray:none;stroke-opacity:1"
       id="path382" /><text
       transform="scale(1,-1)"
       style="font-variant:normal;font-size:7.97011px;font-family:'Nimbus Sans L';-inkscape-font-specification:NimbusSanL-Regu;writing-mode:lr-tb;fill:#262626;fill-opacity:1;fill-rule:nonzero;stroke:none"
       id="text386"
       x="143.45059"
       y="-19.1521"><tspan
         x="143.45059"
         y="-19.1521"
         id="tspan384">6</tspan></text><path
       d="m 191.68046,30.630756 v -4.8"
       style="fill:#262626;fill-opacity:1;fill-rule:nonzero;stroke:#262626;stroke-width:1;stroke-linecap:butt;stroke-linejoin:round;stroke-miterlimit:10;stroke-dasharray:none;stroke-opacity:1"
       id="path388" /><text
       transform="scale(1,-1)"
       style="font-variant:normal;font-size:7.97011px;font-family:'Nimbus Sans L';-inkscape-font-specification:NimbusSanL-Regu;writing-mode:lr-tb;fill:#262626;fill-opacity:1;fill-rule:nonzero;stroke:none"
       id="text392"
       x="189.4648"
       y="-19.1521"><tspan
         x="189.4648"
         y="-19.1521"
         id="tspan390">8</tspan></text><path
       d="m 237.69467,30.630756 v -4.8"
       style="fill:#262626;fill-opacity:1;fill-rule:nonzero;stroke:#262626;stroke-width:1;stroke-linecap:butt;stroke-linejoin:round;stroke-miterlimit:10;stroke-dasharray:none;stroke-opacity:1"
       id="path394" /><text
       transform="scale(1,-1)"
       style="font-variant:normal;font-size:7.97011px;font-family:'Nimbus Sans L';-inkscape-font-specification:NimbusSanL-Regu;writing-mode:lr-tb;fill:#262626;fill-opacity:1;fill-rule:nonzero;stroke:none"
       id="text398"
       x="233.26334"
       y="-19.1521"><tspan
         x="233.26334 237.68674"
         y="-19.1521"
         id="tspan396">10</tspan></text><text
       transform="scale(1,-1)"
       style="font-variant:normal;font-size:9.56414px;font-family:'Nimbus Sans L';-inkscape-font-specification:NimbusSanL-Regu;writing-mode:lr-tb;fill:#262626;fill-opacity:1;fill-rule:nonzero;stroke:none"
       id="text402"
       x="72.594391"
       y="-6.463141"><tspan
         x="72.594391 77.902489 83.210587 91.167953 96.476051 101.78415 107.52254 112.83064 118.13863 120.7879 123.9632 129.27129 131.38496 136.69307 138.80673 144.11484 151.98604 156.7681 162.0762 167.38429 172.6924 177.47447 182.78256 188.09067 190.73993"
         y="-6.463141"
         id="tspan400">numberoftrainingsnapshots</tspan></text><path
       d="m 30.630756,30.630756 h -4.8"
       style="fill:#262626;fill-opacity:1;fill-rule:nonzero;stroke:#262626;stroke-width:1;stroke-linecap:butt;stroke-linejoin:round;stroke-miterlimit:10;stroke-dasharray:none;stroke-opacity:1"
       id="path404" /><text
       transform="scale(1,-1)"
       style="font-variant:normal;font-size:7.97011px;font-family:'Nimbus Sans L';-inkscape-font-specification:NimbusSanL-Regu;writing-mode:lr-tb;fill:#262626;fill-opacity:1;fill-rule:nonzero;stroke:none"
       id="text408"
       x="20.399422"
       y="-27.791428"><tspan
         x="20.399422"
         y="-27.791428"
         id="tspan406">0</tspan></text><path
       d="m 30.630756,49.337755 h -4.8"
       style="fill:#262626;fill-opacity:1;fill-rule:nonzero;stroke:#262626;stroke-width:1;stroke-linecap:butt;stroke-linejoin:round;stroke-miterlimit:10;stroke-dasharray:none;stroke-opacity:1"
       id="path410" /><text
       transform="scale(1,-1)"
       style="font-variant:normal;font-size:7.97011px;font-family:'Nimbus Sans L';-inkscape-font-specification:NimbusSanL-Regu;writing-mode:lr-tb;fill:#262626;fill-opacity:1;fill-rule:nonzero;stroke:none"
       id="text414"
       x="15.968086"
       y="-46.498428"><tspan
         x="15.968086 20.391499"
         y="-46.498428"
         id="tspan412">10</tspan></text><path
       d="m 30.630756,68.044753 h -4.8"
       style="fill:#262626;fill-opacity:1;fill-rule:nonzero;stroke:#262626;stroke-width:1;stroke-linecap:butt;stroke-linejoin:round;stroke-miterlimit:10;stroke-dasharray:none;stroke-opacity:1"
       id="path416" /><text
       transform="scale(1,-1)"
       style="font-variant:normal;font-size:7.97011px;font-family:'Nimbus Sans L';-inkscape-font-specification:NimbusSanL-Regu;writing-mode:lr-tb;fill:#262626;fill-opacity:1;fill-rule:nonzero;stroke:none"
       id="text420"
       x="15.968086"
       y="-65.205421"><tspan
         x="15.968086 20.391499"
         y="-65.205421"
         id="tspan418">20</tspan></text><path
       d="m 30.630756,86.751752 h -4.8"
       style="fill:#262626;fill-opacity:1;fill-rule:nonzero;stroke:#262626;stroke-width:1;stroke-linecap:butt;stroke-linejoin:round;stroke-miterlimit:10;stroke-dasharray:none;stroke-opacity:1"
       id="path422" /><text
       transform="scale(1,-1)"
       style="font-variant:normal;font-size:7.97011px;font-family:'Nimbus Sans L';-inkscape-font-specification:NimbusSanL-Regu;writing-mode:lr-tb;fill:#262626;fill-opacity:1;fill-rule:nonzero;stroke:none"
       id="text426"
       x="15.968086"
       y="-83.912422"><tspan
         x="15.968086 20.391499"
         y="-83.912422"
         id="tspan424">30</tspan></text><path
       d="m 30.630756,105.45875 h -4.8"
       style="fill:#262626;fill-opacity:1;fill-rule:nonzero;stroke:#262626;stroke-width:1;stroke-linecap:butt;stroke-linejoin:round;stroke-miterlimit:10;stroke-dasharray:none;stroke-opacity:1"
       id="path428" /><text
       transform="scale(1,-1)"
       style="font-variant:normal;font-size:7.97011px;font-family:'Nimbus Sans L';-inkscape-font-specification:NimbusSanL-Regu;writing-mode:lr-tb;fill:#262626;fill-opacity:1;fill-rule:nonzero;stroke:none"
       id="text432"
       x="15.968086"
       y="-102.61942"><tspan
         x="15.968086 20.391499"
         y="-102.61942"
         id="tspan430">40</tspan></text><path
       d="m 30.630756,124.16575 h -4.8"
       style="fill:#262626;fill-opacity:1;fill-rule:nonzero;stroke:#262626;stroke-width:1;stroke-linecap:butt;stroke-linejoin:round;stroke-miterlimit:10;stroke-dasharray:none;stroke-opacity:1"
       id="path434" /><text
       transform="scale(1,-1)"
       style="font-variant:normal;font-size:7.97011px;font-family:'Nimbus Sans L';-inkscape-font-specification:NimbusSanL-Regu;writing-mode:lr-tb;fill:#262626;fill-opacity:1;fill-rule:nonzero;stroke:none"
       id="text438"
       x="15.968086"
       y="-121.32642"><tspan
         x="15.968086 20.391499"
         y="-121.32642"
         id="tspan436">50</tspan></text><text
       transform="matrix(0,1,1,0,0,0)"
       style="font-variant:normal;font-size:9.56414px;font-family:'Nimbus Sans L';-inkscape-font-specification:NimbusSanL-Regu;writing-mode:lr-tb;fill:#262626;fill-opacity:1;fill-rule:nonzero;stroke:none"
       id="text442"
       x="32.785801"
       y="9.9309864"><tspan
         x="32.785801 38.093899 43.401997 48.710098 56.676926 61.985023 67.293121 75.259949 83.217316 89.587036 98.615486 101.79078 109.74815 115.05624 121.42596"
         y="9.9309864"
         id="tspan440">bandgapMAE(meV)</tspan></text><g
       id="g444"><g
         id="g446"
         clip-path="url(#clipPath450)"><path
           d="M 30.630756,122.61146 V 51.789977 l 23.007101,-8.846274 23.007101,-4.029147 23.007101,3.311563 23.007101,-0.241706 23.0071,-2.058061 23.0071,1.170329 23.0071,-0.605369 23.0071,-3.003647 23.00711,-0.623859 v 27.941018 0 l -23.00711,2.331846 -23.0071,3.057421 -23.0071,3.547584 -23.0071,1.731539 -23.0071,-1.796163 -23.007101,-1.813094 -23.007101,13.675241 -23.007101,0.797259 z"
           style="fill:#294079;fill-opacity:0.5;fill-rule:nonzero;stroke:#294079;stroke-width:0.8;stroke-linecap:butt;stroke-linejoin:round;stroke-miterlimit:10;stroke-dasharray:none;stroke-opacity:0.5"
           id="path452" /></g></g><g
       id="g454"><g
         id="g456"
         clip-path="url(#clipPath460)"><path
           d="M 30.630756,119.85678 V 54.956216 l 23.007101,-14.585233 23.007101,7.140436 23.007101,-3.737996 23.007101,-2.615548 23.0071,1.111756 23.0071,5.401992 23.0071,-0.794096 23.0071,-5.120143 23.00711,-0.454249 v 50.228219 0 l -23.00711,3.549049 -23.0071,4.570082 -23.0071,2.161615 -23.0071,-4.400481 -23.0071,-1.133084 -23.007101,4.942085 -23.007101,7.71068 -23.007101,-6.8524 z"
           style="fill:#8ec291;fill-opacity:0.5;fill-rule:nonzero;stroke:#8ec291;stroke-width:0.8;stroke-linecap:butt;stroke-linejoin:round;stroke-miterlimit:10;stroke-dasharray:none;stroke-opacity:0.5"
           id="path462" /></g></g><g
       id="g464"><g
         id="g466"
         clip-path="url(#clipPath470)"><path
           d="m 30.630756,87.20072 23.007101,-22.56064 23.007101,-2.413203 23.007101,-5.181839 23.007101,0.785694 23.0071,-0.130949 23.0071,-0.280605 23.0071,-2.076477 23.0071,-3.030534 23.00711,-1.477852"
           style="fill:none;stroke:#294079;stroke-width:1.2;stroke-linecap:butt;stroke-linejoin:round;stroke-miterlimit:10;stroke-dasharray:4.44, 1.92;stroke-dashoffset:0;stroke-opacity:1"
           id="path472" /><g
           id="g474"
           transform="translate(30.630756,87.20072)"><g
             id="g476"><g
               id="g478"
               clip-path="url(#clipPath482)"><path
                 d="m 0,-2.4 c 0.636487,0 1.246992,0.252879 1.697056,0.702944 C 2.147121,-1.246992 2.4,-0.636487 2.4,0 2.4,0.636487 2.147121,1.246992 1.697056,1.697056 1.246992,2.147121 0.636487,2.4 0,2.4 -0.636487,2.4 -1.246992,2.147121 -1.697056,1.697056 -2.147121,1.246992 -2.4,0.636487 -2.4,0 c 0,-0.636487 0.252879,-1.246992 0.702944,-1.697056 C -1.246992,-2.147121 -0.636487,-2.4 0,-2.4 Z"
                 style="fill:#294079;fill-opacity:1;fill-rule:nonzero;stroke:#294079;stroke-width:1;stroke-linecap:butt;stroke-linejoin:round;stroke-miterlimit:10;stroke-dasharray:none;stroke-opacity:1"
                 id="path484" /></g></g><g
             id="g486"
             transform="translate(23.007101,-22.560641)"><g
               id="g488"><g
                 id="g490"
                 clip-path="url(#clipPath494)"><path
                   d="m 0,-2.4 c 0.636487,0 1.246992,0.252879 1.697056,0.702944 C 2.147121,-1.246992 2.4,-0.636487 2.4,0 2.4,0.636487 2.147121,1.246992 1.697056,1.697056 1.246992,2.147121 0.636487,2.4 0,2.4 -0.636487,2.4 -1.246992,2.147121 -1.697056,1.697056 -2.147121,1.246992 -2.4,0.636487 -2.4,0 c 0,-0.636487 0.252879,-1.246992 0.702944,-1.697056 C -1.246992,-2.147121 -0.636487,-2.4 0,-2.4 Z"
                   style="fill:#294079;fill-opacity:1;fill-rule:nonzero;stroke:#294079;stroke-width:1;stroke-linecap:butt;stroke-linejoin:round;stroke-miterlimit:10;stroke-dasharray:none;stroke-opacity:1"
                   id="path496" /></g></g><g
               id="g498"
               transform="translate(23.007101,-2.4132028)"><g
                 id="g500"><g
                   id="g502"
                   clip-path="url(#clipPath506)"><path
                     d="m 0,-2.4 c 0.636487,0 1.246992,0.252879 1.697056,0.702944 C 2.147121,-1.246992 2.4,-0.636487 2.4,0 2.4,0.636487 2.147121,1.246992 1.697056,1.697056 1.246992,2.147121 0.636487,2.4 0,2.4 -0.636487,2.4 -1.246992,2.147121 -1.697056,1.697056 -2.147121,1.246992 -2.4,0.636487 -2.4,0 c 0,-0.636487 0.252879,-1.246992 0.702944,-1.697056 C -1.246992,-2.147121 -0.636487,-2.4 0,-2.4 Z"
                     style="fill:#294079;fill-opacity:1;fill-rule:nonzero;stroke:#294079;stroke-width:1;stroke-linecap:butt;stroke-linejoin:round;stroke-miterlimit:10;stroke-dasharray:none;stroke-opacity:1"
                     id="path508" /></g></g><g
                 id="g510"
                 transform="translate(23.007101,-5.1818387)"><g
                   id="g512"><g
                     id="g514"
                     clip-path="url(#clipPath518)"><path
                       d="m 0,-2.4 c 0.636487,0 1.246992,0.252879 1.697056,0.702944 C 2.147121,-1.246992 2.4,-0.636487 2.4,0 2.4,0.636487 2.147121,1.246992 1.697056,1.697056 1.246992,2.147121 0.636487,2.4 0,2.4 -0.636487,2.4 -1.246992,2.147121 -1.697056,1.697056 -2.147121,1.246992 -2.4,0.636487 -2.4,0 c 0,-0.636487 0.252879,-1.246992 0.702944,-1.697056 C -1.246992,-2.147121 -0.636487,-2.4 0,-2.4 Z"
                       style="fill:#294079;fill-opacity:1;fill-rule:nonzero;stroke:#294079;stroke-width:1;stroke-linecap:butt;stroke-linejoin:round;stroke-miterlimit:10;stroke-dasharray:none;stroke-opacity:1"
                       id="path520" /></g></g><g
                   id="g522"
                   transform="translate(23.007101,0.78569395)"><g
                     id="g524"><g
                       id="g526"
                       clip-path="url(#clipPath530)"><path
                         d="m 0,-2.4 c 0.636487,0 1.246992,0.252879 1.697056,0.702944 C 2.147121,-1.246992 2.4,-0.636487 2.4,0 2.4,0.636487 2.147121,1.246992 1.697056,1.697056 1.246992,2.147121 0.636487,2.4 0,2.4 -0.636487,2.4 -1.246992,2.147121 -1.697056,1.697056 -2.147121,1.246992 -2.4,0.636487 -2.4,0 c 0,-0.636487 0.252879,-1.246992 0.702944,-1.697056 C -1.246992,-2.147121 -0.636487,-2.4 0,-2.4 Z"
                         style="fill:#294079;fill-opacity:1;fill-rule:nonzero;stroke:#294079;stroke-width:1;stroke-linecap:butt;stroke-linejoin:round;stroke-miterlimit:10;stroke-dasharray:none;stroke-opacity:1"
                         id="path532" /></g></g><g
                     id="g534"
                     transform="translate(23.007101,-0.13094899)"><g
                       id="g536"><g
                         id="g538"
                         clip-path="url(#clipPath542)"><path
                           d="m 0,-2.4 c 0.636487,0 1.246992,0.252879 1.697056,0.702944 C 2.147121,-1.246992 2.4,-0.636487 2.4,0 2.4,0.636487 2.147121,1.246992 1.697056,1.697056 1.246992,2.147121 0.636487,2.4 0,2.4 -0.636487,2.4 -1.246992,2.147121 -1.697056,1.697056 -2.147121,1.246992 -2.4,0.636487 -2.4,0 c 0,-0.636487 0.252879,-1.246992 0.702944,-1.697056 C -1.246992,-2.147121 -0.636487,-2.4 0,-2.4 Z"
                           style="fill:#294079;fill-opacity:1;fill-rule:nonzero;stroke:#294079;stroke-width:1;stroke-linecap:butt;stroke-linejoin:round;stroke-miterlimit:10;stroke-dasharray:none;stroke-opacity:1"
                           id="path544" /></g></g><g
                       id="g546"
                       transform="translate(23.007101,-0.28060498)"><g
                         id="g548"><g
                           id="g550"
                           clip-path="url(#clipPath554)"><path
                             d="m 0,-2.4 c 0.636487,0 1.246992,0.252879 1.697056,0.702944 C 2.147121,-1.246992 2.4,-0.636487 2.4,0 2.4,0.636487 2.147121,1.246992 1.697056,1.697056 1.246992,2.147121 0.636487,2.4 0,2.4 -0.636487,2.4 -1.246992,2.147121 -1.697056,1.697056 -2.147121,1.246992 -2.4,0.636487 -2.4,0 c 0,-0.636487 0.252879,-1.246992 0.702944,-1.697056 C -1.246992,-2.147121 -0.636487,-2.4 0,-2.4 Z"
                             style="fill:#294079;fill-opacity:1;fill-rule:nonzero;stroke:#294079;stroke-width:1;stroke-linecap:butt;stroke-linejoin:round;stroke-miterlimit:10;stroke-dasharray:none;stroke-opacity:1"
                             id="path556" /></g></g><g
                         id="g558"
                         transform="translate(23.007101,-2.0764769)"><g
                           id="g560"><g
                             id="g562"
                             clip-path="url(#clipPath566)"><path
                               d="m 0,-2.4 c 0.636487,0 1.246992,0.252879 1.697056,0.702944 C 2.147121,-1.246992 2.4,-0.636487 2.4,0 2.4,0.636487 2.147121,1.246992 1.697056,1.697056 1.246992,2.147121 0.636487,2.4 0,2.4 -0.636487,2.4 -1.246992,2.147121 -1.697056,1.697056 -2.147121,1.246992 -2.4,0.636487 -2.4,0 c 0,-0.636487 0.252879,-1.246992 0.702944,-1.697056 C -1.246992,-2.147121 -0.636487,-2.4 0,-2.4 Z"
                               style="fill:#294079;fill-opacity:1;fill-rule:nonzero;stroke:#294079;stroke-width:1;stroke-linecap:butt;stroke-linejoin:round;stroke-miterlimit:10;stroke-dasharray:none;stroke-opacity:1"
                               id="path568" /></g></g><g
                           id="g570"
                           transform="translate(23.007101,-3.0305338)"><g
                             id="g572"><g
                               id="g574"
                               clip-path="url(#clipPath578)"><path
                                 d="m 0,-2.4 c 0.636487,0 1.246992,0.252879 1.697056,0.702944 C 2.147121,-1.246992 2.4,-0.636487 2.4,0 2.4,0.636487 2.147121,1.246992 1.697056,1.697056 1.246992,2.147121 0.636487,2.4 0,2.4 -0.636487,2.4 -1.246992,2.147121 -1.697056,1.697056 -2.147121,1.246992 -2.4,0.636487 -2.4,0 c 0,-0.636487 0.252879,-1.246992 0.702944,-1.697056 C -1.246992,-2.147121 -0.636487,-2.4 0,-2.4 Z"
                                 style="fill:#294079;fill-opacity:1;fill-rule:nonzero;stroke:#294079;stroke-width:1;stroke-linecap:butt;stroke-linejoin:round;stroke-miterlimit:10;stroke-dasharray:none;stroke-opacity:1"
                                 id="path580" /></g></g><g
                             id="g582"
                             transform="translate(23.007101,-1.4778529)"><g
                               id="g584"><g
                                 id="g586"
                                 clip-path="url(#clipPath590)"><path
                                   d="m 0,-2.4 c 0.636487,0 1.246992,0.252879 1.697056,0.702944 C 2.147121,-1.246992 2.4,-0.636487 2.4,0 2.4,0.636487 2.147121,1.246992 1.697056,1.697056 1.246992,2.147121 0.636487,2.4 0,2.4 -0.636487,2.4 -1.246992,2.147121 -1.697056,1.697056 -2.147121,1.246992 -2.4,0.636487 -2.4,0 c 0,-0.636487 0.252879,-1.246992 0.702944,-1.697056 C -1.246992,-2.147121 -0.636487,-2.4 0,-2.4 Z"
                                   style="fill:#294079;fill-opacity:1;fill-rule:nonzero;stroke:#294079;stroke-width:1;stroke-linecap:butt;stroke-linejoin:round;stroke-miterlimit:10;stroke-dasharray:none;stroke-opacity:1"
                                   id="path592" /></g></g></g></g></g></g></g></g></g></g></g></g></g></g><g
       id="g594"><g
         id="g596"
         clip-path="url(#clipPath600)"><path
           d="m 30.630756,87.406497 23.007101,-16.181554 23.007101,6.996418 23.007101,-5.724342 23.007101,-3.778814 23.0071,1.12242 23.0071,4.901234 23.0071,-1.477853 23.0071,-4.845113 23.00711,-2.001648"
           style="fill:none;stroke:#8ec291;stroke-width:1.2;stroke-linecap:butt;stroke-linejoin:round;stroke-miterlimit:10;stroke-dasharray:4.44, 1.92;stroke-dashoffset:0;stroke-opacity:1"
           id="path602" /><g
           id="g604"
           transform="translate(30.630756,87.406497)"><g
             id="g606"><g
               id="g608"
               clip-path="url(#clipPath612)"><path
                 d="m 0,-2.4 c 0.636487,0 1.246992,0.252879 1.697056,0.702944 C 2.147121,-1.246992 2.4,-0.636487 2.4,0 2.4,0.636487 2.147121,1.246992 1.697056,1.697056 1.246992,2.147121 0.636487,2.4 0,2.4 -0.636487,2.4 -1.246992,2.147121 -1.697056,1.697056 -2.147121,1.246992 -2.4,0.636487 -2.4,0 c 0,-0.636487 0.252879,-1.246992 0.702944,-1.697056 C -1.246992,-2.147121 -0.636487,-2.4 0,-2.4 Z"
                 style="fill:#8ec291;fill-opacity:1;fill-rule:nonzero;stroke:#8ec291;stroke-width:1;stroke-linecap:butt;stroke-linejoin:round;stroke-miterlimit:10;stroke-dasharray:none;stroke-opacity:1"
                 id="path614" /></g></g><g
             id="g616"
             transform="translate(23.007101,-16.181554)"><g
               id="g618"><g
                 id="g620"
                 clip-path="url(#clipPath624)"><path
                   d="m 0,-2.4 c 0.636487,0 1.246992,0.252879 1.697056,0.702944 C 2.147121,-1.246992 2.4,-0.636487 2.4,0 2.4,0.636487 2.147121,1.246992 1.697056,1.697056 1.246992,2.147121 0.636487,2.4 0,2.4 -0.636487,2.4 -1.246992,2.147121 -1.697056,1.697056 -2.147121,1.246992 -2.4,0.636487 -2.4,0 c 0,-0.636487 0.252879,-1.246992 0.702944,-1.697056 C -1.246992,-2.147121 -0.636487,-2.4 0,-2.4 Z"
                   style="fill:#8ec291;fill-opacity:1;fill-rule:nonzero;stroke:#8ec291;stroke-width:1;stroke-linecap:butt;stroke-linejoin:round;stroke-miterlimit:10;stroke-dasharray:none;stroke-opacity:1"
                   id="path626" /></g></g><g
               id="g628"
               transform="translate(23.007101,6.9964175)"><g
                 id="g630"><g
                   id="g632"
                   clip-path="url(#clipPath636)"><path
                     d="m 0,-2.4 c 0.636487,0 1.246992,0.252879 1.697056,0.702944 C 2.147121,-1.246992 2.4,-0.636487 2.4,0 2.4,0.636487 2.147121,1.246992 1.697056,1.697056 1.246992,2.147121 0.636487,2.4 0,2.4 -0.636487,2.4 -1.246992,2.147121 -1.697056,1.697056 -2.147121,1.246992 -2.4,0.636487 -2.4,0 c 0,-0.636487 0.252879,-1.246992 0.702944,-1.697056 C -1.246992,-2.147121 -0.636487,-2.4 0,-2.4 Z"
                     style="fill:#8ec291;fill-opacity:1;fill-rule:nonzero;stroke:#8ec291;stroke-width:1;stroke-linecap:butt;stroke-linejoin:round;stroke-miterlimit:10;stroke-dasharray:none;stroke-opacity:1"
                     id="path638" /></g></g><g
                 id="g640"
                 transform="translate(23.007101,-5.7243416)"><g
                   id="g642"><g
                     id="g644"
                     clip-path="url(#clipPath648)"><path
                       d="m 0,-2.4 c 0.636487,0 1.246992,0.252879 1.697056,0.702944 C 2.147121,-1.246992 2.4,-0.636487 2.4,0 2.4,0.636487 2.147121,1.246992 1.697056,1.697056 1.246992,2.147121 0.636487,2.4 0,2.4 -0.636487,2.4 -1.246992,2.147121 -1.697056,1.697056 -2.147121,1.246992 -2.4,0.636487 -2.4,0 c 0,-0.636487 0.252879,-1.246992 0.702944,-1.697056 C -1.246992,-2.147121 -0.636487,-2.4 0,-2.4 Z"
                       style="fill:#8ec291;fill-opacity:1;fill-rule:nonzero;stroke:#8ec291;stroke-width:1;stroke-linecap:butt;stroke-linejoin:round;stroke-miterlimit:10;stroke-dasharray:none;stroke-opacity:1"
                       id="path650" /></g></g><g
                   id="g652"
                   transform="translate(23.007101,-3.7788138)"><g
                     id="g654"><g
                       id="g656"
                       clip-path="url(#clipPath660)"><path
                         d="m 0,-2.4 c 0.636487,0 1.246992,0.252879 1.697056,0.702944 C 2.147121,-1.246992 2.4,-0.636487 2.4,0 2.4,0.636487 2.147121,1.246992 1.697056,1.697056 1.246992,2.147121 0.636487,2.4 0,2.4 -0.636487,2.4 -1.246992,2.147121 -1.697056,1.697056 -2.147121,1.246992 -2.4,0.636487 -2.4,0 c 0,-0.636487 0.252879,-1.246992 0.702944,-1.697056 C -1.246992,-2.147121 -0.636487,-2.4 0,-2.4 Z"
                         style="fill:#8ec291;fill-opacity:1;fill-rule:nonzero;stroke:#8ec291;stroke-width:1;stroke-linecap:butt;stroke-linejoin:round;stroke-miterlimit:10;stroke-dasharray:none;stroke-opacity:1"
                         id="path662" /></g></g><g
                     id="g664"
                     transform="translate(23.007101,1.1224199)"><g
                       id="g666"><g
                         id="g668"
                         clip-path="url(#clipPath672)"><path
                           d="m 0,-2.4 c 0.636487,0 1.246992,0.252879 1.697056,0.702944 C 2.147121,-1.246992 2.4,-0.636487 2.4,0 2.4,0.636487 2.147121,1.246992 1.697056,1.697056 1.246992,2.147121 0.636487,2.4 0,2.4 -0.636487,2.4 -1.246992,2.147121 -1.697056,1.697056 -2.147121,1.246992 -2.4,0.636487 -2.4,0 c 0,-0.636487 0.252879,-1.246992 0.702944,-1.697056 C -1.246992,-2.147121 -0.636487,-2.4 0,-2.4 Z"
                           style="fill:#8ec291;fill-opacity:1;fill-rule:nonzero;stroke:#8ec291;stroke-width:1;stroke-linecap:butt;stroke-linejoin:round;stroke-miterlimit:10;stroke-dasharray:none;stroke-opacity:1"
                           id="path674" /></g></g><g
                       id="g676"
                       transform="translate(23.007101,4.9012337)"><g
                         id="g678"><g
                           id="g680"
                           clip-path="url(#clipPath684)"><path
                             d="m 0,-2.4 c 0.636487,0 1.246992,0.252879 1.697056,0.702944 C 2.147121,-1.246992 2.4,-0.636487 2.4,0 2.4,0.636487 2.147121,1.246992 1.697056,1.697056 1.246992,2.147121 0.636487,2.4 0,2.4 -0.636487,2.4 -1.246992,2.147121 -1.697056,1.697056 -2.147121,1.246992 -2.4,0.636487 -2.4,0 c 0,-0.636487 0.252879,-1.246992 0.702944,-1.697056 C -1.246992,-2.147121 -0.636487,-2.4 0,-2.4 Z"
                             style="fill:#8ec291;fill-opacity:1;fill-rule:nonzero;stroke:#8ec291;stroke-width:1;stroke-linecap:butt;stroke-linejoin:round;stroke-miterlimit:10;stroke-dasharray:none;stroke-opacity:1"
                             id="path686" /></g></g><g
                         id="g688"
                         transform="translate(23.007101,-1.4778529)"><g
                           id="g690"><g
                             id="g692"
                             clip-path="url(#clipPath696)"><path
                               d="m 0,-2.4 c 0.636487,0 1.246992,0.252879 1.697056,0.702944 C 2.147121,-1.246992 2.4,-0.636487 2.4,0 2.4,0.636487 2.147121,1.246992 1.697056,1.697056 1.246992,2.147121 0.636487,2.4 0,2.4 -0.636487,2.4 -1.246992,2.147121 -1.697056,1.697056 -2.147121,1.246992 -2.4,0.636487 -2.4,0 c 0,-0.636487 0.252879,-1.246992 0.702944,-1.697056 C -1.246992,-2.147121 -0.636487,-2.4 0,-2.4 Z"
                               style="fill:#8ec291;fill-opacity:1;fill-rule:nonzero;stroke:#8ec291;stroke-width:1;stroke-linecap:butt;stroke-linejoin:round;stroke-miterlimit:10;stroke-dasharray:none;stroke-opacity:1"
                               id="path698" /></g></g><g
                           id="g700"
                           transform="translate(23.007101,-4.8451127)"><g
                             id="g702"><g
                               id="g704"
                               clip-path="url(#clipPath708)"><path
                                 d="m 0,-2.4 c 0.636487,0 1.246992,0.252879 1.697056,0.702944 C 2.147121,-1.246992 2.4,-0.636487 2.4,0 2.4,0.636487 2.147121,1.246992 1.697056,1.697056 1.246992,2.147121 0.636487,2.4 0,2.4 -0.636487,2.4 -1.246992,2.147121 -1.697056,1.697056 -2.147121,1.246992 -2.4,0.636487 -2.4,0 c 0,-0.636487 0.252879,-1.246992 0.702944,-1.697056 C -1.246992,-2.147121 -0.636487,-2.4 0,-2.4 Z"
                                 style="fill:#8ec291;fill-opacity:1;fill-rule:nonzero;stroke:#8ec291;stroke-width:1;stroke-linecap:butt;stroke-linejoin:round;stroke-miterlimit:10;stroke-dasharray:none;stroke-opacity:1"
                                 id="path710" /></g></g><g
                             id="g712"
                             transform="translate(23.007101,-2.0016489)"><g
                               id="g714"><g
                                 id="g716"
                                 clip-path="url(#clipPath720)"><path
                                   d="m 0,-2.4 c 0.636487,0 1.246992,0.252879 1.697056,0.702944 C 2.147121,-1.246992 2.4,-0.636487 2.4,0 2.4,0.636487 2.147121,1.246992 1.697056,1.697056 1.246992,2.147121 0.636487,2.4 0,2.4 -0.636487,2.4 -1.246992,2.147121 -1.697056,1.697056 -2.147121,1.246992 -2.4,0.636487 -2.4,0 c 0,-0.636487 0.252879,-1.246992 0.702944,-1.697056 C -1.246992,-2.147121 -0.636487,-2.4 0,-2.4 Z"
                                   style="fill:#8ec291;fill-opacity:1;fill-rule:nonzero;stroke:#8ec291;stroke-width:1;stroke-linecap:butt;stroke-linejoin:round;stroke-miterlimit:10;stroke-dasharray:none;stroke-opacity:1"
                                   id="path722" /></g></g></g></g></g></g></g></g></g></g></g></g></g></g><g
       id="g724"><path
         d="M 30.630756,30.630756 V 126.89885"
         style="fill:none;stroke:#262626;stroke-width:1;stroke-linecap:square;stroke-linejoin:miter;stroke-miterlimit:10;stroke-dasharray:none;stroke-opacity:1"
         id="path726" /><path
         d="M 237.69467,30.630756 V 126.89885"
         style="fill:none;stroke:#262626;stroke-width:1;stroke-linecap:square;stroke-linejoin:miter;stroke-miterlimit:10;stroke-dasharray:none;stroke-opacity:1"
         id="path728" /><path
         d="M 30.630756,30.630756 H 237.69467"
         style="fill:none;stroke:#262626;stroke-width:1;stroke-linecap:square;stroke-linejoin:miter;stroke-miterlimit:10;stroke-dasharray:none;stroke-opacity:1"
         id="path730" /><path
         d="M 30.630756,126.89885 H 237.69467"
         style="fill:none;stroke:#262626;stroke-width:1;stroke-linecap:square;stroke-linejoin:miter;stroke-miterlimit:10;stroke-dasharray:none;stroke-opacity:1"
         id="path732" /></g></g></svg>
