<svg xmlns="http://www.w3.org/2000/svg" xml:space="preserve" width="326.728" height="202.571"><defs><clipPath id="a" clipPathUnits="userSpaceOnUse"><path d="M29.406 26.587h182.103v120.784H29.406Z"/></clipPath><clipPath id="b" clipPathUnits="userSpaceOnUse"><path d="M29.406 26.587h182.103v120.784H29.406Z"/></clipPath><clipPath id="c" clipPathUnits="userSpaceOnUse"><path d="M214.696 26.587h30.35v120.784h-30.35z"/></clipPath><clipPath id="d" clipPathUnits="userSpaceOnUse"><path d="M214.696 26.587h30.35v120.784h-30.35z"/></clipPath></defs><path d="M0 0h245.046v151.929H0Z" style="fill:#fff;fill-opacity:1;fill-rule:nonzero;stroke:none" transform="matrix(1.33333 0 0 -1.33333 0 202.571)"/><path d="M29.406 26.587h182.103v120.784H29.406Z" style="fill:#fff;fill-opacity:1;fill-rule:nonzero;stroke:none" transform="matrix(1.33333 0 0 -1.33333 0 202.571)"/><path d="M29.406 26.587v-4.8" style="fill:#262626;fill-opacity:1;fill-rule:nonzero;stroke:#262626;stroke-width:1;stroke-linecap:butt;stroke-linejoin:round;stroke-miterlimit:10;stroke-dasharray:none;stroke-opacity:1" transform="matrix(1.33333 0 0 -1.33333 0 202.571)"/><text style="font-variant:normal;font-size:7.97011px;font-family:&quot;Nimbus Sans L&quot;;-inkscape-font-specification:NimbusSanL-Regu;writing-mode:lr-tb;fill:#262626;fill-opacity:1;fill-rule:nonzero;stroke:none" transform="matrix(1.33333 0 0 1.33333 36.253 182.426)"><tspan x="0" y="0">3</tspan></text><path d="M88.84 26.587v-4.8" style="fill:#262626;fill-opacity:1;fill-rule:nonzero;stroke:#262626;stroke-width:1;stroke-linecap:butt;stroke-linejoin:round;stroke-miterlimit:10;stroke-dasharray:none;stroke-opacity:1" transform="matrix(1.33333 0 0 -1.33333 0 202.571)"/><text style="font-variant:normal;font-size:7.97011px;font-family:&quot;Nimbus Sans L&quot;;-inkscape-font-specification:NimbusSanL-Regu;writing-mode:lr-tb;fill:#262626;fill-opacity:1;fill-rule:nonzero;stroke:none" transform="matrix(1.33333 0 0 1.33333 112.545 182.426)"><tspan x="0 4.4234123" y="0">10</tspan></text><path d="M202.508 26.587v-4.8" style="fill:#262626;fill-opacity:1;fill-rule:nonzero;stroke:#262626;stroke-width:1;stroke-linecap:butt;stroke-linejoin:round;stroke-miterlimit:10;stroke-dasharray:none;stroke-opacity:1" transform="matrix(1.33333 0 0 -1.33333 0 202.571)"/><text style="font-variant:normal;font-size:7.97011px;font-family:&quot;Nimbus Sans L&quot;;-inkscape-font-specification:NimbusSanL-Regu;writing-mode:lr-tb;fill:#262626;fill-opacity:1;fill-rule:nonzero;stroke:none" transform="matrix(1.33333 0 0 1.33333 261.148 182.426)"><tspan x="0 4.4234123 8.8468246" y="0">100</tspan></text><path d="M43.607 26.587v-3.2M54.623 26.587v-3.2M63.623 26.587v-3.2M71.233 26.587v-3.2M77.825 26.587v-3.2M83.639 26.587v-3.2M123.058 26.587v-3.2M143.074 26.587v-3.2M157.275 26.587v-3.2M168.29 26.587v-3.2M177.291 26.587v-3.2M184.9 26.587v-3.2M191.493 26.587v-3.2M197.307 26.587v-3.2" style="fill:#262626;fill-opacity:1;fill-rule:nonzero;stroke:#262626;stroke-width:.8;stroke-linecap:butt;stroke-linejoin:round;stroke-miterlimit:10;stroke-dasharray:none;stroke-opacity:1" transform="matrix(1.33333 0 0 -1.33333 0 202.571)"/><path d="M29.406 26.587h-4.8" style="fill:#262626;fill-opacity:1;fill-rule:nonzero;stroke:#262626;stroke-width:1;stroke-linecap:butt;stroke-linejoin:round;stroke-miterlimit:10;stroke-dasharray:none;stroke-opacity:1" transform="matrix(1.33333 0 0 -1.33333 0 202.571)"/><text style="font-variant:normal;font-size:7.97011px;font-family:&quot;Nimbus Sans L&quot;;-inkscape-font-specification:NimbusSanL-Regu;writing-mode:lr-tb;fill:#262626;fill-opacity:1;fill-rule:nonzero;stroke:none" transform="matrix(1.33333 0 0 1.33333 25.566 170.907)"><tspan x="0" y="0">1</tspan></text><path d="M29.406 84.68h-4.8" style="fill:#262626;fill-opacity:1;fill-rule:nonzero;stroke:#262626;stroke-width:1;stroke-linecap:butt;stroke-linejoin:round;stroke-miterlimit:10;stroke-dasharray:none;stroke-opacity:1" transform="matrix(1.33333 0 0 -1.33333 0 202.571)"/><text style="font-variant:normal;font-size:7.97011px;font-family:&quot;Nimbus Sans L&quot;;-inkscape-font-specification:NimbusSanL-Regu;writing-mode:lr-tb;fill:#262626;fill-opacity:1;fill-rule:nonzero;stroke:none" transform="matrix(1.33333 0 0 1.33333 19.657 93.452)"><tspan x="0 4.4234123" y="0">10</tspan></text><path d="M29.406 142.77h-4.8" style="fill:#262626;fill-opacity:1;fill-rule:nonzero;stroke:#262626;stroke-width:1;stroke-linecap:butt;stroke-linejoin:round;stroke-miterlimit:10;stroke-dasharray:none;stroke-opacity:1" transform="matrix(1.33333 0 0 -1.33333 0 202.571)"/><text style="font-variant:normal;font-size:7.97011px;font-family:&quot;Nimbus Sans L&quot;;-inkscape-font-specification:NimbusSanL-Regu;writing-mode:lr-tb;fill:#262626;fill-opacity:1;fill-rule:nonzero;stroke:none" transform="matrix(1.33333 0 0 1.33333 13.749 15.996)"><tspan x="0 4.4234123 8.8468246" y="0">100</tspan></text><path d="M29.406 44.075h-3.2M29.406 54.304h-3.2M29.406 61.562h-3.2M29.406 67.192h-3.2M29.406 71.792h-3.2M29.406 75.68h-3.2M29.406 79.05h-3.2M29.406 82.021h-3.2M29.406 102.167h-3.2M29.406 112.396h-3.2M29.406 119.654h-3.2M29.406 125.284h-3.2M29.406 129.883h-3.2M29.406 133.772h-3.2M29.406 137.141h-3.2M29.406 140.113h-3.2" style="fill:#262626;fill-opacity:1;fill-rule:nonzero;stroke:#262626;stroke-width:.8;stroke-linecap:butt;stroke-linejoin:round;stroke-miterlimit:10;stroke-dasharray:none;stroke-opacity:1" transform="matrix(1.33333 0 0 -1.33333 0 202.571)"/><text style="font-variant:normal;font-size:9.56414px;font-family:&quot;Nimbus Sans L&quot;;-inkscape-font-specification:NimbusSanL-Regu;writing-mode:lr-tb;fill:#262626;fill-opacity:1;fill-rule:nonzero;stroke:none" transform="matrix(0 -1.33333 1.33333 0 13.7 111.058)"><tspan x="0 4.7820702 10.090168 15.398267 20.706364 26.014462 31.322561" y="0">speedup</tspan></text><g clip-path="url(#a)" transform="matrix(1.33333 0 0 -1.33333 0 202.571)"><path d="m29.406 26.587 14.201 6.506 11.016 4.9 9 3.89 7.61 3.199 6.592 2.696 5.814 2.318 5.201 2.02 4.705 1.782 4.296 1.588 3.95 1.426 3.66 1.29 3.405 1.175 3.186 1.074 2.993.988 2.822.911 2.669.845 2.532.785 2.408.731 2.297.685 2.194.641 2.101.603 2.015.567 1.936.535 1.863.506 1.796.48 1.732.454 1.674.431 1.618.411 1.568.391 1.519.373 1.473.356 1.431.34 1.391.327 1.353.312 1.316.299 1.282.287 1.25.276 1.22.266 1.189.255 1.161.246 1.135.237 1.11.228 1.085.221 1.061.213 1.04.206 1.017.199.998.192.977.187.959.18.94.175.923.17.906.164.89.16.873.155.859.15.844.147.83.142.815.139.803.134.79.131.777.128.766.124.753.122.743.118.73.115.722.112.71.11.7.107.69.104.681.102.672.1.663.097.654.095.645.093.637.091.629.089.62.087.614.085.606.084.598.081.591.08.585.079.577.076.57.075.565.074.558.072.551.071.546.07.54.068.533.067.528.065.522.065.517.063.512.062.506.061.501.06.496.059" style="fill:none;stroke:#294079;stroke-width:1.2;stroke-linecap:round;stroke-linejoin:round;stroke-miterlimit:10;stroke-dasharray:none;stroke-opacity:1"/></g><g clip-path="url(#b)" transform="matrix(1.33333 0 0 -1.33333 0 202.571)"><path d="m29.406 26.587 14.201 7.149 11.016 5.52 9 4.492 7.61 3.78 6.592 3.262 5.814 2.864 5.201 2.552 4.705 2.298 4.296 2.09 3.95 1.913 3.66 1.765 3.405 1.636 3.186 1.524 2.993 1.426 2.822 1.339 2.669 1.261 2.532 1.192 2.408 1.129 2.297 1.072 2.194 1.02 2.101.973 2.015.93 1.936.889 1.863.853 1.796.818 1.732.786 1.674.757 1.618.73 1.568.703 1.519.679 1.473.656 1.431.635 1.391.615 1.353.595 1.316.577 1.282.56 1.25.545 1.22.528 1.189.514 1.161.5 1.135.487 1.11.474 1.085.462 1.061.45 1.04.44 1.017.428.998.418.977.409.959.4.94.39.923.381.906.373.89.366.873.357.859.35.844.343.83.336.815.33.803.322.79.316.777.31.766.305.753.3.743.293.73.288.722.283.71.278.7.273.69.268.681.264.672.259.663.255.654.25.645.247.637.243.629.239.62.235.614.23.606.229.598.224.591.22.585.218.577.215.57.21.565.209.558.205.551.202.546.2.54.196.533.194.528.19.522.19.517.185.512.183.506.181.501.179.496.176" style="fill:none;stroke:#8ec291;stroke-width:1.2;stroke-linecap:round;stroke-linejoin:round;stroke-miterlimit:10;stroke-dasharray:none;stroke-opacity:1"/></g><path d="m209.688 23.665 3.642 5.845M209.688 144.449l3.642 5.844" style="fill:none;stroke:#191919;stroke-width:1.2;stroke-linecap:round;stroke-linejoin:round;stroke-miterlimit:10;stroke-dasharray:none;stroke-opacity:1" transform="matrix(1.33333 0 0 -1.33333 0 202.571)"/><path d="M29.406 26.587v120.784M29.406 26.587h182.103M29.406 147.37h182.103" style="fill:none;stroke:#262626;stroke-width:1;stroke-linecap:square;stroke-linejoin:miter;stroke-miterlimit:10;stroke-dasharray:none;stroke-opacity:1" transform="matrix(1.33333 0 0 -1.33333 0 202.571)"/><path d="M37.326 136.284h17.6" style="fill:none;stroke:#294079;stroke-width:1.2;stroke-linecap:round;stroke-linejoin:round;stroke-miterlimit:10;stroke-dasharray:none;stroke-opacity:1" transform="matrix(1.33333 0 0 -1.33333 0 202.571)"/><text style="font-variant:normal;font-size:8.76713px;font-family:&quot;Nimbus Sans L&quot;;-inkscape-font-specification:NimbusSanL-Regu;writing-mode:lr-tb;fill:#262626;fill-opacity:1;fill-rule:nonzero;stroke:none" transform="matrix(1.33333 0 0 1.33333 82.62 24.966)"><tspan x="0 6.1896787 11.055434 13.483928 18.349684" y="0">water</tspan></text><path d="M37.326 123.77h17.6" style="fill:none;stroke:#8ec291;stroke-width:1.2;stroke-linecap:round;stroke-linejoin:round;stroke-miterlimit:10;stroke-dasharray:none;stroke-opacity:1" transform="matrix(1.33333 0 0 -1.33333 0 202.571)"/><text style="font-variant:normal;font-size:8.76713px;font-family:&quot;Nimbus Sans L&quot;;-inkscape-font-specification:NimbusSanL-Regu;writing-mode:lr-tb;fill:#262626;fill-opacity:1;fill-rule:nonzero;stroke:none" transform="matrix(1.33333 0 0 1.33333 82.62 41.651)"><tspan x="0 6.3210979 10.704661 16.543568 21.409323" y="0">CsSnI</tspan></text><text style="font-variant:normal;font-size:6.13696px;font-family:&quot;Nimbus Sans L&quot;;-inkscape-font-specification:NimbusSanL-Regu;writing-mode:lr-tb;fill:#262626;fill-opacity:1;fill-rule:nonzero;stroke:none" transform="matrix(1.33333 0 0 1.33333 114.45 43.39)"><tspan x="0" y="0">3</tspan></text><path d="M214.696 26.587h30.35v120.784h-30.35z" style="fill:#fff;fill-opacity:1;fill-rule:nonzero;stroke:none" transform="matrix(1.33333 0 0 -1.33333 0 202.571)"/><path d="M229.87 26.587v-4.8" style="fill:#262626;fill-opacity:1;fill-rule:nonzero;stroke:#262626;stroke-width:1;stroke-linecap:butt;stroke-linejoin:round;stroke-miterlimit:10;stroke-dasharray:none;stroke-opacity:1" transform="matrix(1.33333 0 0 -1.33333 0 202.571)"/><text style="font-style:italic;font-variant:normal;font-weight:400;font-size:7.97011px;font-family:&quot;Computer Modern&quot;;-inkscape-font-specification:CMSY8;writing-mode:lr-tb;fill:#262626;fill-opacity:1;fill-rule:nonzero;stroke:none" transform="matrix(1.33333 0 0 1.33333 300.849 182.426)"><tspan x="0" y="0">∞</tspan></text><g clip-path="url(#c)" transform="matrix(1.33333 0 0 -1.33333 0 202.571)"><path d="m227.47 84.722 4.8 4.8m-4.8 0 4.8-4.8" style="fill:#294079;fill-opacity:1;fill-rule:nonzero;stroke:#294079;stroke-width:1.2;stroke-linecap:butt;stroke-linejoin:round;stroke-miterlimit:10;stroke-dasharray:none;stroke-opacity:1"/></g><g clip-path="url(#d)" transform="matrix(1.33333 0 0 -1.33333 0 202.571)"><path d="m227.47 133.653 4.8 4.8m-4.8 0 4.8-4.8" style="fill:#8ec291;fill-opacity:1;fill-rule:nonzero;stroke:#8ec291;stroke-width:1.2;stroke-linecap:butt;stroke-linejoin:round;stroke-miterlimit:10;stroke-dasharray:none;stroke-opacity:1"/></g><path d="m212.874 144.449 3.643 5.844M212.874 23.665l3.643 5.845" style="fill:none;stroke:#191919;stroke-width:1.2;stroke-linecap:round;stroke-linejoin:round;stroke-miterlimit:10;stroke-dasharray:none;stroke-opacity:1" transform="matrix(1.33333 0 0 -1.33333 0 202.571)"/><path d="M245.046 26.587v120.784M214.696 26.587h30.35M214.696 147.37h30.35" style="fill:none;stroke:#262626;stroke-width:1;stroke-linecap:square;stroke-linejoin:miter;stroke-miterlimit:10;stroke-dasharray:none;stroke-opacity:1" transform="matrix(1.33333 0 0 -1.33333 0 202.571)"/><text style="font-variant:normal;font-size:9.56414px;font-family:&quot;Nimbus Sans L&quot;;-inkscape-font-specification:NimbusSanL-Regu;writing-mode:lr-tb;fill:#262626;fill-opacity:1;fill-rule:nonzero;stroke:none" transform="matrix(1.33333 0 0 1.33333 106.402 198.52)"><tspan x="0 2.649267 7.957365 10.606632 15.91473 20.687136 25.995234 31.303331 39.260696 44.568794 49.876892 55.615284 60.923382 66.231377 71.013451 76.321548 81.629646 86.937744 91.719818 97.027916 102.33601 104.98528" y="0">totalnumberofsnapshots</tspan></text></svg>